<svg xmlns="http://www.w3.org/2000/svg" version="1.1" xmlns:xlink="http://www.w3.org/1999/xlink" xmlns:svgjs="http://svgjs.dev/svgjs" width="10.5em" height="3em" viewBox="0 0 1900 600"><g transform="matrix(1,0,0,1,-1.2121212121212466,-1.186671336677307)"><svg viewBox="0 0 396 115" data-background-color="#ffffff" preserveAspectRatio="xMidYMid meet" height="580" width="2000" xmlns="http://www.w3.org/2000/svg" xmlns:xlink="http://www.w3.org/1999/xlink"><g id="tight-bounds" transform="matrix(1,0,0,1,0.2400000000000091,0.2352882822722222)"><svg viewBox="0 0 395.52 114.52942343545554" height="114.52942343545554" width="395.52"><g><svg viewBox="0 0 603.9096595347066 174.87213064728004" height="114.52942343545554" width="395.52"><g transform="matrix(1,0,0,1,0,24.16829012563712)"><svg viewBox="0 0 395.52 126.5355503960058" height="126.5355503960058" width="395.52"><g id="textblocktransform"><svg viewBox="0 0 395.52 126.5355503960058" height="126.5355503960058" width="395.52" id="textblock"><g><svg viewBox="0 0 395.52 92.80662525879916" height="92.80662525879916" width="395.52"><g transform="matrix(1,0,0,1,0,0)"><svg width="395.52" viewBox="5 -33.25 144.89 34" height="92.80662525879916" data-palette-color="#7a26c1"><path d="M17.65 0L5 0 5-32.5 8.5-32.5 8.5-3 17.65-3 17.65 0ZM39.9-26.25L39.9-26.25 39.9-6.25Q39.9-2.9 37.77-1.07 35.65 0.75 31.42 0.75 27.2 0.75 25.05-1.07 22.9-2.9 22.9-6.25L22.9-6.25 22.9-26.25Q22.9-29.6 25.02-31.43 27.15-33.25 31.37-33.25 35.6-33.25 37.75-31.43 39.9-29.6 39.9-26.25ZM36.4-6.25L36.4-6.25 36.4-26.25Q36.4-30.25 31.4-30.25 26.4-30.25 26.4-26.25L26.4-26.25 26.4-6.25Q26.4-2.25 31.4-2.25 36.4-2.25 36.4-6.25ZM64.65-26.25L64.65 0 63.15 0 61.84-3.2Q60.8-1.4 59.1-0.33 57.4 0.75 55.35 0.75L55.35 0.75Q48.15 0.75 48.15-6.25L48.15-6.25 48.15-11.25Q48.15-18.25 55.35-18.25L55.35-18.25 61.15-18.25 61.15-26.45Q61.15-28.25 60-29.25 58.85-30.25 56.6-30.25L56.6-30.25Q52.15-30.25 52.15-26.45L52.15-26.45 52.15-23.5 48.65-23.5 48.65-26.25Q48.65-29.6 50.62-31.43 52.6-33.25 56.6-33.25 60.59-33.25 62.62-31.43 64.65-29.6 64.65-26.25L64.65-26.25ZM61.15-7.1L61.15-15.25 55.35-15.25Q53.25-15.25 52.45-14.2 51.65-13.15 51.65-11.25L51.65-11.25 51.65-6.25Q51.65-4.35 52.45-3.3 53.25-2.25 55.35-2.25 57.45-2.25 59.25-3.88 61.05-5.5 61.15-7.1L61.15-7.1ZM77.64-25.25L77.64 0 74.14 0 74.14-32.5 75.64-32.5 76.89-29.25Q79.29-33.25 83.54-33.25L83.54-33.25Q90.89-33.25 90.89-26.25L90.89-26.25 90.89 0 87.39 0 87.39-26.25Q87.39-28.15 86.57-29.2 85.74-30.25 83.54-30.25 81.34-30.25 79.49-28.55 77.64-26.85 77.64-25.25L77.64-25.25ZM103.89-32.5L103.89 0 100.39 0 100.39-32.5 103.89-32.5ZM117.39-15L117.39 0 113.89 0 113.89-32.5 127.64-32.5 127.64-29.5 117.39-29.5 117.39-18 125.64-18 125.64-15 117.39-15ZM143.19-9.2L143.19 0 139.69 0 139.69-9.2Q132.89-9.95 132.89-16.1L132.89-16.1 132.89-32.5 136.39-32.5 136.39-16.1Q136.39-12.1 141.39-12.1 146.39-12.1 146.39-16.1L146.39-16.1 146.39-32.5 149.89-32.5 149.89-16.1Q149.89-9.95 143.19-9.2L143.19-9.2Z" opacity="1" transform="matrix(1,0,0,1,0,0)" fill="#7a26c1" class="wordmark-text-0" data-fill-palette-color="primary" id="text-0"></path></svg></g></svg></g><g transform="matrix(1,0,0,1,163.310208,114.71604212339543)"><svg viewBox="0 0 232.209792 11.819508272610372" height="11.819508272610372" width="232.209792"><g transform="matrix(1,0,0,1,0,0)"><svg width="232.209792" viewBox="2.4 -36.5 932.5600000000001 47.5" height="11.819508272610372" data-palette-color="#7a26c1"><path d="M25.95 0L12.25 0Q9.35 0 7.13-1.38 4.9-2.75 3.65-5 2.4-7.25 2.4-9.9L2.4-9.9Q2.4-12.3 3.53-14.4 4.65-16.5 6.8-17.7L6.8-17.7Q4.7-19.05 3.6-21.05 2.5-23.05 2.5-25.25L2.5-25.25Q2.5-27.95 3.78-30.15 5.05-32.35 7.25-33.68 9.45-35 12.1-35L12.1-35 25.95-35 25.95-30.75 12.65-30.75Q11.1-30.75 9.9-30 8.7-29.25 8-28.03 7.3-26.8 7.3-25.25L7.3-25.25Q7.3-23.8 8.03-22.6 8.75-21.4 10-20.68 11.25-19.95 12.75-19.95L12.75-19.95 24.1-19.95 24.1-15.7 13.1-15.7Q11.25-15.7 9.93-14.88 8.6-14.05 7.88-12.73 7.15-11.4 7.15-9.9L7.15-9.9Q7.15-8.4 7.85-7.1 8.55-5.8 9.85-5.03 11.15-4.25 12.9-4.25L12.9-4.25 25.95-4.25 25.95 0ZM36.4 0L31.8 0 31.8-15.35Q31.8-18.3 33.15-20.75 34.5-23.2 37.05-24.65 39.6-26.1 43.2-26.1L43.2-26.1Q44.95-26.1 46.7-25.63 48.45-25.15 49.95-24.03 51.45-22.9 52.35-21L52.35-21 52.4-21Q53.4-22.9 54.9-24.03 56.4-25.15 58.15-25.63 59.9-26.1 61.7-26.1L61.7-26.1Q65.25-26.1 67.8-24.65 70.35-23.2 71.7-20.75 73.05-18.3 73.05-15.35L73.05-15.35 73.05 0 68.45 0 68.45-15.35Q68.45-17.25 67.55-18.8 66.65-20.35 65.12-21.25 63.6-22.15 61.65-22.15L61.65-22.15Q59.75-22.15 58.15-21.23 56.55-20.3 55.62-18.78 54.7-17.25 54.7-15.35L54.7-15.35 54.7 0 50.1 0 50.1-15.35Q50.1-17.25 49.17-18.78 48.25-20.3 46.67-21.23 45.1-22.15 43.15-22.15L43.15-22.15Q41.25-22.15 39.72-21.25 38.2-20.35 37.3-18.8 36.4-17.25 36.4-15.35L36.4-15.35 36.4 0ZM93.25-26.1L93.25-26.1Q89.55-26.1 86.6-24.5 83.65-22.9 81.92-19.88 80.2-16.85 80.2-12.6L80.2-12.6 80.2 11 84.8 11 84.8-4.55 84.9-4.55Q85.75-3 87.12-1.85 88.5-0.7 90.27-0.05 92.05 0.6 94 0.6L94 0.6Q97.55 0.6 100.35-1 103.15-2.6 104.77-5.53 106.4-8.45 106.4-12.45L106.4-12.45Q106.4-15.6 105.42-18.13 104.45-20.65 102.7-22.45 100.95-24.25 98.55-25.18 96.15-26.1 93.25-26.1ZM93.25-22.15L93.25-22.15Q95.6-22.15 97.52-21 99.45-19.85 100.6-17.75 101.75-15.65 101.75-12.75L101.75-12.75Q101.75-9.95 100.62-7.85 99.5-5.75 97.6-4.55 95.7-3.35 93.3-3.35L93.3-3.35Q90.95-3.35 89.02-4.5 87.1-5.65 85.97-7.78 84.85-9.9 84.85-12.8L84.85-12.8Q84.85-15.65 85.97-17.75 87.1-19.85 89.02-21 90.95-22.15 93.25-22.15ZM124.29 0.6L124.29 0.6Q120.39 0.6 117.39-1.18 114.39-2.95 112.64-5.98 110.89-9 110.89-12.75L110.89-12.75Q110.89-16.5 112.64-19.53 114.39-22.55 117.39-24.33 120.39-26.1 124.29-26.1L124.29-26.1Q128.19-26.1 131.22-24.33 134.24-22.55 135.97-19.53 137.69-16.5 137.69-12.75L137.69-12.75Q137.69-9 135.97-5.98 134.24-2.95 131.22-1.18 128.19 0.6 124.29 0.6ZM124.29-3.35L124.29-3.35Q126.94-3.35 128.89-4.6 130.84-5.85 131.94-7.98 133.04-10.1 133.04-12.75L133.04-12.75Q133.04-15.4 131.94-17.53 130.84-19.65 128.89-20.9 126.94-22.15 124.29-22.15L124.29-22.15Q121.69-22.15 119.72-20.9 117.74-19.65 116.64-17.53 115.54-15.4 115.54-12.75L115.54-12.75Q115.54-10.1 116.64-7.98 117.74-5.85 119.72-4.6 121.69-3.35 124.29-3.35ZM152.14 0.6L152.14 0.6Q149.74 0.6 147.82-0.33 145.89-1.25 144.74-3.23 143.59-5.2 143.59-8.3L143.59-8.3 143.59-25.5 148.19-25.5 148.19-7.5Q148.19-6.15 148.74-5.2 149.29-4.25 150.19-3.8 151.09-3.35 152.09-3.35L152.09-3.35Q153.09-3.35 153.99-3.83 154.89-4.3 155.47-5.23 156.04-6.15 156.04-7.5L156.04-7.5 156.04-17.4Q156.04-20.35 157.14-22.28 158.24-24.2 160.14-25.15 162.04-26.1 164.44-26.1L164.44-26.1Q166.84-26.1 168.74-25.15 170.64-24.2 171.74-22.28 172.84-20.35 172.84-17.4L172.84-17.4 172.84-7.5Q172.84-6.15 173.39-5.23 173.94-4.3 174.84-3.83 175.74-3.35 176.79-3.35L176.79-3.35Q177.84-3.35 178.69-3.83 179.54-4.3 180.09-5.23 180.64-6.15 180.64-7.5L180.64-7.5 180.64-25.5 185.29-25.5 185.29-8.3Q185.29-5.2 184.14-3.23 182.99-1.25 181.07-0.33 179.14 0.6 176.79 0.6L176.79 0.6Q174.49 0.6 172.54-0.33 170.59-1.25 169.42-3.23 168.24-5.2 168.24-8.3L168.24-8.3 168.24-18.1Q168.24-19.5 167.69-20.4 167.14-21.3 166.29-21.73 165.44-22.15 164.44-22.15L164.44-22.15Q163.44-22.15 162.57-21.73 161.69-21.3 161.17-20.4 160.64-19.5 160.64-18.1L160.64-18.1 160.64-8.3Q160.64-5.2 159.47-3.23 158.29-1.25 156.37-0.33 154.44 0.6 152.14 0.6ZM212.09 0L205.54 0Q201.34 0 198.09-1.58 194.84-3.15 193.01-6.03 191.19-8.9 191.19-12.75L191.19-12.75Q191.19-16.55 192.74-19.58 194.29-22.6 197.04-24.35 199.79-26.1 203.44-26.1L203.44-26.1Q207.39-26.1 210.01-24.4 212.64-22.7 213.94-19.83 215.24-16.95 215.24-13.4L215.24-13.4Q215.24-12.85 215.21-12.25 215.19-11.65 215.09-11.2L215.09-11.2 196.09-11.2Q196.34-8.85 197.64-7.23 198.94-5.6 200.96-4.78 202.99-3.95 205.44-3.95L205.44-3.95 212.09-3.95 212.09 0ZM196.04-14.45L196.04-14.45 210.59-14.45Q210.59-15.4 210.39-16.48 210.19-17.55 209.69-18.57 209.19-19.6 208.36-20.43 207.54-21.25 206.31-21.75 205.09-22.25 203.44-22.25L203.44-22.25Q201.69-22.25 200.36-21.58 199.04-20.9 198.09-19.78 197.14-18.65 196.64-17.25 196.14-15.85 196.04-14.45ZM225.54 0L220.94 0 220.94-18.25Q220.94-21.65 222.86-23.58 224.79-25.5 228.19-25.5L228.19-25.5 233.44-25.5 233.44-21.55 229.04-21.55Q227.39-21.55 226.46-20.6 225.54-19.65 225.54-17.95L225.54-17.95 225.54 0ZM242.33 0L237.68 0 237.68-25.5 242.33-25.5 242.33 0ZM240.03-29.55L240.03-29.55Q238.78-29.55 237.86-30.48 236.93-31.4 236.93-32.65L236.93-32.65Q236.93-33.9 237.86-34.83 238.78-35.75 240.03-35.75L240.03-35.75Q241.28-35.75 242.21-34.83 243.13-33.9 243.13-32.65L243.13-32.65Q243.13-31.4 242.21-30.48 241.28-29.55 240.03-29.55ZM254.18 0L249.58 0 249.58-14.75Q249.58-18.15 251.11-20.7 252.63-23.25 255.33-24.68 258.03-26.1 261.48-26.1L261.48-26.1Q264.98-26.1 267.66-24.68 270.33-23.25 271.86-20.7 273.38-18.15 273.38-14.75L273.38-14.75 273.38 0 268.78 0 268.78-14.7Q268.78-17 267.76-18.68 266.73-20.35 265.06-21.25 263.38-22.15 261.48-22.15L261.48-22.15Q259.58-22.15 257.91-21.25 256.23-20.35 255.21-18.68 254.18-17 254.18-14.7L254.18-14.7 254.18 0ZM297.88 10.15L284.53 10.15 284.53 6.2 297.03 6.2Q298.88 6.2 299.9 5.1 300.93 4 300.93 2.2L300.93 2.2 300.93-4.8 300.83-4.8Q299.88-3.35 298.53-2.2 297.18-1.05 295.43-0.38 293.68 0.3 291.48 0.3L291.48 0.3Q287.88 0.3 285.13-1.38 282.38-3.05 280.83-6.03 279.28-9 279.28-12.85L279.28-12.85Q279.28-16.6 280.83-19.6 282.38-22.6 285.3-24.35 288.23-26.1 292.38-26.1L292.38-26.1Q296.38-26.1 299.33-24.4 302.28-22.7 303.9-19.68 305.53-16.65 305.53-12.6L305.53-12.6 305.53 2.5Q305.53 6 303.48 8.08 301.43 10.15 297.88 10.15L297.88 10.15ZM292.33-3.65L292.33-3.65Q294.88-3.65 296.8-4.85 298.73-6.05 299.8-8.13 300.88-10.2 300.88-12.8L300.88-12.8Q300.88-15.45 299.83-17.55 298.78-19.65 296.88-20.88 294.98-22.1 292.33-22.1L292.33-22.1Q289.73-22.1 287.85-20.88 285.98-19.65 284.95-17.53 283.93-15.4 283.93-12.75L283.93-12.75Q283.93-10.25 284.95-8.18 285.98-6.1 287.85-4.88 289.73-3.65 292.33-3.65ZM337.27 0L326.07 0 326.07-35 337.27-35Q342.87-35 346.95-32.75 351.02-30.5 353.27-26.55 355.52-22.6 355.52-17.5L355.52-17.5Q355.52-12.4 353.27-8.45 351.02-4.5 346.95-2.25 342.87 0 337.27 0L337.27 0ZM330.87-30.75L330.87-4.25 337.32-4.25Q341.22-4.25 344.25-5.85 347.27-7.45 349.02-10.43 350.77-13.4 350.77-17.5L350.77-17.5Q350.77-21.65 349.02-24.6 347.27-27.55 344.25-29.15 341.22-30.75 337.32-30.75L337.32-30.75 330.87-30.75ZM365.72 0L361.12 0 361.12-18.25Q361.12-21.65 363.05-23.58 364.97-25.5 368.37-25.5L368.37-25.5 373.62-25.5 373.62-21.55 369.22-21.55Q367.57-21.55 366.65-20.6 365.72-19.65 365.72-17.95L365.72-17.95 365.72 0ZM397.37 0L390.82 0Q386.62 0 383.37-1.58 380.12-3.15 378.29-6.03 376.47-8.9 376.47-12.75L376.47-12.75Q376.47-16.55 378.02-19.58 379.57-22.6 382.32-24.35 385.07-26.1 388.72-26.1L388.72-26.1Q392.67-26.1 395.29-24.4 397.92-22.7 399.22-19.83 400.52-16.95 400.52-13.4L400.52-13.4Q400.52-12.85 400.49-12.25 400.47-11.65 400.37-11.2L400.37-11.2 381.37-11.2Q381.62-8.85 382.92-7.23 384.22-5.6 386.24-4.78 388.27-3.95 390.72-3.95L390.72-3.95 397.37-3.95 397.37 0ZM381.32-14.45L381.32-14.45 395.87-14.45Q395.87-15.4 395.67-16.48 395.47-17.55 394.97-18.57 394.47-19.6 393.64-20.43 392.82-21.25 391.59-21.75 390.37-22.25 388.72-22.25L388.72-22.25Q386.97-22.25 385.64-21.58 384.32-20.9 383.37-19.78 382.42-18.65 381.92-17.25 381.42-15.85 381.32-14.45ZM416.97 0.6L416.97 0.6Q413.27 0.6 410.57-1.18 407.87-2.95 406.42-6 404.97-9.05 404.97-12.75L404.97-12.75Q404.97-16.5 406.57-19.53 408.17-22.55 411.17-24.33 414.17-26.1 418.37-26.1L418.37-26.1Q422.42-26.1 425.32-24.35 428.22-22.6 429.79-19.6 431.37-16.6 431.37-12.9L431.37-12.9 431.37 0 426.72 0 426.72-5.2 426.62-5.2Q425.87-3.75 424.59-2.43 423.32-1.1 421.42-0.25 419.52 0.6 416.97 0.6ZM418.17-3.35L418.17-3.35Q420.67-3.35 422.59-4.58 424.52-5.8 425.59-7.98 426.67-10.15 426.67-12.85L426.67-12.85Q426.67-15.5 425.64-17.6 424.62-19.7 422.72-20.93 420.82-22.15 418.27-22.15L418.27-22.15Q415.57-22.15 413.64-20.9 411.72-19.65 410.69-17.53 409.67-15.4 409.67-12.7L409.67-12.7Q409.67-10.1 410.67-7.98 411.67-5.85 413.57-4.6 415.47-3.35 418.17-3.35ZM443.26 0L438.66 0 438.66-15.35Q438.66-18.3 440.01-20.75 441.36-23.2 443.91-24.65 446.46-26.1 450.06-26.1L450.06-26.1Q451.81-26.1 453.56-25.63 455.31-25.15 456.81-24.03 458.31-22.9 459.21-21L459.21-21 459.26-21Q460.26-22.9 461.76-24.03 463.26-25.15 465.01-25.63 466.76-26.1 468.56-26.1L468.56-26.1Q472.11-26.1 474.66-24.65 477.21-23.2 478.56-20.75 479.91-18.3 479.91-15.35L479.91-15.35 479.91 0 475.31 0 475.31-15.35Q475.31-17.25 474.41-18.8 473.51-20.35 471.99-21.25 470.46-22.15 468.51-22.15L468.51-22.15Q466.61-22.15 465.01-21.23 463.41-20.3 462.49-18.78 461.56-17.25 461.56-15.35L461.56-15.35 461.56 0 456.96 0 456.96-15.35Q456.96-17.25 456.04-18.78 455.11-20.3 453.54-21.23 451.96-22.15 450.01-22.15L450.01-22.15Q448.11-22.15 446.59-21.25 445.06-20.35 444.16-18.8 443.26-17.25 443.26-15.35L443.26-15.35 443.26 0ZM499.61 0L486.86 0 486.86-3.95 499.06-3.95Q500.26-3.95 501.14-4.48 502.01-5 502.46-5.85 502.91-6.7 502.91-7.65L502.91-7.65Q502.91-8.55 502.51-9.33 502.11-10.1 501.29-10.58 500.46-11.05 499.31-11.05L499.31-11.05 494.16-11.05Q491.71-11.05 489.89-11.88 488.06-12.7 487.04-14.3 486.01-15.9 486.01-18.2L486.01-18.2Q486.01-20.15 486.96-21.8 487.91-23.45 489.61-24.48 491.31-25.5 493.51-25.5L493.51-25.5 505.26-25.5 505.26-21.55 493.96-21.55Q492.41-21.55 491.51-20.6 490.61-19.65 490.61-18.35L490.61-18.35Q490.61-17.1 491.54-16.18 492.46-15.25 494.16-15.25L494.16-15.25 499.06-15.25Q501.81-15.25 503.69-14.38 505.56-13.5 506.54-11.85 507.51-10.2 507.51-7.8L507.51-7.8Q507.51-5.75 506.51-3.98 505.51-2.2 503.74-1.1 501.96 0 499.61 0L499.61 0ZM515.71 7.5L511.81 7.5 514.06 0.3Q512.96-0.05 512.38-0.98 511.81-1.9 511.81-2.85L511.81-2.85Q511.81-4.25 512.78-5.18 513.76-6.1 515.11-6.1L515.11-6.1Q516.61-6.1 517.51-5.1 518.41-4.1 518.41-2.7L518.41-2.7Q518.41-1.75 518.26-0.93 518.11-0.1 517.71 0.95L517.71 0.95 515.71 7.5ZM541.8 0L537 0 537-25.9Q537-28.55 538.2-30.6 539.4-32.65 541.45-33.83 543.5-35 546.1-35L546.1-35 558.55-35 558.55-30.75 546.65-30.75Q544.45-30.75 543.13-29.38 541.8-28 541.8-25.9L541.8-25.9 541.8-18.8 556.7-18.8 556.7-14.55 541.8-14.55 541.8 0ZM575.9 0.6L575.9 0.6Q572.45 0.6 569.72-0.83 567-2.25 565.47-4.8 563.95-7.35 563.95-10.75L563.95-10.75 563.95-25.5 568.6-25.5 568.6-10.8Q568.6-8.5 569.6-6.83 570.6-5.15 572.27-4.25 573.95-3.35 575.85-3.35L575.85-3.35Q577.8-3.35 579.47-4.25 581.15-5.15 582.17-6.83 583.2-8.5 583.2-10.8L583.2-10.8 583.2-25.5 587.85-25.5 587.85-10.75Q587.85-7.35 586.3-4.8 584.75-2.25 582.05-0.83 579.35 0.6 575.9 0.6ZM599.75 0L595.15 0 595.15-36.5 599.75-36.5 599.75 0ZM613.19 0L608.54 0 608.54-21.55 604.09-21.55 604.09-25.5 608.54-25.5 608.54-29.25Q608.54-32.65 610.47-34.58 612.39-36.5 615.79-36.5L615.79-36.5 622.09-36.5 622.09-32.55 616.69-32.55Q614.99-32.55 614.09-31.6 613.19-30.65 613.19-28.95L613.19-28.95 613.19-25.5 621.09-25.5 621.09-21.55 613.19-21.55 613.19 0ZM629.89 0L625.24 0 625.24-25.5 629.89-25.5 629.89 0ZM627.59-29.55L627.59-29.55Q626.34-29.55 625.42-30.48 624.49-31.4 624.49-32.65L624.49-32.65Q624.49-33.9 625.42-34.83 626.34-35.75 627.59-35.75L627.59-35.75Q628.84-35.75 629.77-34.83 630.69-33.9 630.69-32.65L630.69-32.65Q630.69-31.4 629.77-30.48 628.84-29.55 627.59-29.55ZM641.74 0L637.14 0 637.14-36.5 641.74-36.5 641.74 0ZM653.64 0L649.04 0 649.04-36.5 653.64-36.5 653.64 0ZM665.58 0L660.93 0 660.93-25.5 665.58-25.5 665.58 0ZM663.28-29.55L663.28-29.55Q662.03-29.55 661.11-30.48 660.18-31.4 660.18-32.65L660.18-32.65Q660.18-33.9 661.11-34.83 662.03-35.75 663.28-35.75L663.28-35.75Q664.53-35.75 665.46-34.83 666.38-33.9 666.38-32.65L666.38-32.65Q666.38-31.4 665.46-30.48 664.53-29.55 663.28-29.55ZM677.43 0L672.83 0 672.83-14.75Q672.83-18.15 674.36-20.7 675.88-23.25 678.58-24.68 681.28-26.1 684.73-26.1L684.73-26.1Q688.23-26.1 690.91-24.68 693.58-23.25 695.11-20.7 696.63-18.15 696.63-14.75L696.63-14.75 696.63 0 692.03 0 692.03-14.7Q692.03-17 691.01-18.68 689.98-20.35 688.31-21.25 686.63-22.15 684.73-22.15L684.73-22.15Q682.83-22.15 681.16-21.25 679.48-20.35 678.46-18.68 677.43-17 677.43-14.7L677.43-14.7 677.43 0ZM721.13 10.15L707.78 10.15 707.78 6.2 720.28 6.2Q722.13 6.2 723.15 5.1 724.18 4 724.18 2.2L724.18 2.2 724.18-4.8 724.08-4.8Q723.13-3.35 721.78-2.2 720.43-1.05 718.68-0.38 716.93 0.3 714.73 0.3L714.73 0.3Q711.13 0.3 708.38-1.38 705.63-3.05 704.08-6.03 702.53-9 702.53-12.85L702.53-12.85Q702.53-16.6 704.08-19.6 705.63-22.6 708.55-24.35 711.48-26.1 715.63-26.1L715.63-26.1Q719.63-26.1 722.58-24.4 725.53-22.7 727.15-19.68 728.78-16.65 728.78-12.6L728.78-12.6 728.78 2.5Q728.78 6 726.73 8.08 724.68 10.15 721.13 10.15L721.13 10.15ZM715.58-3.65L715.58-3.65Q718.13-3.65 720.05-4.85 721.98-6.05 723.05-8.13 724.13-10.2 724.13-12.8L724.13-12.8Q724.13-15.45 723.08-17.55 722.03-19.65 720.13-20.88 718.23-22.1 715.58-22.1L715.58-22.1Q712.98-22.1 711.1-20.88 709.23-19.65 708.2-17.53 707.18-15.4 707.18-12.75L707.18-12.75Q707.18-10.25 708.2-8.18 709.23-6.1 711.1-4.88 712.98-3.65 715.58-3.65ZM753.77 0L748.97 0 748.97-25.9Q748.97-28.55 750.17-30.6 751.37-32.65 753.42-33.83 755.47-35 758.07-35L758.07-35 770.52-35 770.52-30.75 758.62-30.75Q756.42-30.75 755.1-29.38 753.77-28 753.77-25.9L753.77-25.9 753.77-18.8 768.67-18.8 768.67-14.55 753.77-14.55 753.77 0ZM787.87 0.6L787.87 0.6Q784.42 0.6 781.7-0.83 778.97-2.25 777.45-4.8 775.92-7.35 775.92-10.75L775.92-10.75 775.92-25.5 780.57-25.5 780.57-10.8Q780.57-8.5 781.57-6.83 782.57-5.15 784.25-4.25 785.92-3.35 787.82-3.35L787.82-3.35Q789.77-3.35 791.45-4.25 793.12-5.15 794.15-6.83 795.17-8.5 795.17-10.8L795.17-10.8 795.17-25.5 799.82-25.5 799.82-10.75Q799.82-7.35 798.27-4.8 796.72-2.25 794.02-0.83 791.32 0.6 787.87 0.6ZM821.82 0L815.82 0Q812.42 0 810.49-1.95 808.57-3.9 808.57-7.25L808.57-7.25 808.57-31.9 813.17-31.9 813.17-7.55Q813.17-5.9 814.09-4.93 815.02-3.95 816.67-3.95L816.67-3.95 821.82-3.95 821.82 0ZM821.92-21.55L804.17-21.55 804.17-25.5 821.92-25.5 821.92-21.55ZM839.42 0.6L839.42 0.6Q835.97 0.6 833.24-0.83 830.52-2.25 828.99-4.8 827.47-7.35 827.47-10.75L827.47-10.75 827.47-25.5 832.12-25.5 832.12-10.8Q832.12-8.5 833.12-6.83 834.12-5.15 835.79-4.25 837.47-3.35 839.37-3.35L839.37-3.35Q841.32-3.35 842.99-4.25 844.67-5.15 845.69-6.83 846.72-8.5 846.72-10.8L846.72-10.8 846.72-25.5 851.37-25.5 851.37-10.75Q851.37-7.35 849.82-4.8 848.27-2.25 845.57-0.83 842.87 0.6 839.42 0.6ZM863.11 0L858.51 0 858.51-18.25Q858.51-21.65 860.44-23.58 862.36-25.5 865.76-25.5L865.76-25.5 871.01-25.5 871.01-21.55 866.61-21.55Q864.96-21.55 864.04-20.6 863.11-19.65 863.11-17.95L863.11-17.95 863.11 0ZM894.76 0L888.21 0Q884.01 0 880.76-1.58 877.51-3.15 875.69-6.03 873.86-8.9 873.86-12.75L873.86-12.75Q873.86-16.55 875.41-19.58 876.96-22.6 879.71-24.35 882.46-26.1 886.11-26.1L886.11-26.1Q890.06-26.1 892.69-24.4 895.31-22.7 896.61-19.83 897.91-16.95 897.91-13.4L897.91-13.4Q897.91-12.85 897.89-12.25 897.86-11.65 897.76-11.2L897.76-11.2 878.76-11.2Q879.01-8.85 880.31-7.23 881.61-5.6 883.64-4.78 885.66-3.95 888.11-3.95L888.11-3.95 894.76-3.95 894.76 0ZM878.71-14.45L878.71-14.45 893.26-14.45Q893.26-15.4 893.06-16.48 892.86-17.55 892.36-18.57 891.86-19.6 891.04-20.43 890.21-21.25 888.99-21.75 887.76-22.25 886.11-22.25L886.11-22.25Q884.36-22.25 883.04-21.58 881.71-20.9 880.76-19.78 879.81-18.65 879.31-17.25 878.81-15.85 878.71-14.45ZM916.16 0L903.41 0 903.41-3.95 915.61-3.95Q916.81-3.95 917.68-4.48 918.56-5 919.01-5.85 919.46-6.7 919.46-7.65L919.46-7.65Q919.46-8.55 919.06-9.33 918.66-10.1 917.83-10.58 917.01-11.05 915.86-11.05L915.86-11.05 910.71-11.05Q908.26-11.05 906.43-11.88 904.61-12.7 903.58-14.3 902.56-15.9 902.56-18.2L902.56-18.2Q902.56-20.15 903.51-21.8 904.46-23.45 906.16-24.48 907.86-25.5 910.06-25.5L910.06-25.5 921.81-25.5 921.81-21.55 910.51-21.55Q908.96-21.55 908.06-20.6 907.16-19.65 907.16-18.35L907.16-18.35Q907.16-17.1 908.08-16.18 909.01-15.25 910.71-15.25L910.71-15.25 915.61-15.25Q918.36-15.25 920.23-14.38 922.11-13.5 923.08-11.85 924.06-10.2 924.06-7.8L924.06-7.8Q924.06-5.75 923.06-3.98 922.06-2.2 920.28-1.1 918.51 0 916.16 0L916.16 0ZM931.66 0.5L931.66 0.5Q930.31 0.5 929.33-0.48 928.36-1.45 928.36-2.8L928.36-2.8Q928.36-4.15 929.33-5.13 930.31-6.1 931.66-6.1L931.66-6.1Q933.01-6.1 933.98-5.13 934.96-4.15 934.96-2.8L934.96-2.8Q934.96-1.9 934.53-1.15 934.11-0.4 933.36 0.05 932.61 0.5 931.66 0.5Z" opacity="1" transform="matrix(1,0,0,1,0,0)" fill="#7a26c1" class="slogan-text-1" data-fill-palette-color="secondary" id="text-1"></path></svg></g></svg></g></svg></g></svg></g><g transform="matrix(1,0,0,1,417.42941686459625,0)"><svg viewBox="0 0 186.48024267011033 174.87213064728004" height="174.87213064728004" width="186.48024267011033"><g><svg xmlns="http://www.w3.org/2000/svg" xmlns:xlink="http://www.w3.org/1999/xlink" version="1.1" x="0" y="0" viewBox="1.402000000000006 3.307 61.19724160726315 57.38780621671609" enable-background="new 0 0 64 64" xml:space="preserve" height="174.87213064728004" width="186.48024267011033" class="icon-icon-0" data-fill-palette-color="accent" id="icon-0"><g fill="#7a26c1" data-fill-palette-color="accent"><path fill="#7a26c1" d="M39.428 3.307c-9.126 0-16.524 7.397-16.524 16.524 0 9.126 7.397 16.524 16.524 16.524s16.524-7.397 16.524-16.524C55.952 10.705 48.555 3.307 39.428 3.307zM54.439 17.687c0.115 0.767-0.414 1.481-1.181 1.596-0.767 0.115-1.481-0.414-1.596-1.181-0.115-0.767 0.414-1.481 1.181-1.596C53.609 16.391 54.324 16.92 54.439 17.687zM51.034 12.329c0.687-0.359 1.535-0.092 1.894 0.595 0.359 0.687 0.092 1.535-0.595 1.894s-1.535 0.092-1.894-0.595S50.347 12.688 51.034 12.329zM47.962 8.972c0.533-0.564 1.421-0.589 1.985-0.056 0.564 0.533 0.589 1.421 0.056 1.985-0.533 0.564-1.421 0.589-1.985 0.056C47.454 10.424 47.429 9.535 47.962 8.972zM39.472 6.055c0.071-0.772 0.755-1.34 1.527-1.269 0.772 0.071 1.34 0.755 1.269 1.527-0.071 0.772-0.755 1.34-1.527 1.269C39.968 7.511 39.4 6.827 39.472 6.055zM36.013 5.118c0.753-0.185 1.513 0.276 1.698 1.029 0.185 0.753-0.276 1.513-1.029 1.698-0.753 0.185-1.513-0.276-1.698-1.029C34.8 6.063 35.26 5.303 36.013 5.118zM25.268 14.766c0.253-0.733 1.052-1.122 1.785-0.869 0.733 0.253 1.122 1.052 0.869 1.785-0.253 0.733-1.052 1.122-1.785 0.869C25.404 16.299 25.015 15.499 25.268 14.766zM24.403 19.687c0-0.775 0.629-1.404 1.404-1.404 0.775 0 1.404 0.629 1.404 1.404 0 0.775-0.629 1.404-1.404 1.404C25.031 21.091 24.403 20.462 24.403 19.687zM25.029 24.109c-0.227-0.741 0.19-1.526 0.932-1.753 0.741-0.227 1.526 0.19 1.753 0.932 0.227 0.741-0.19 1.526-0.932 1.753C26.041 25.267 25.256 24.85 25.029 24.109zM29.189 28.904c-0.627 0.457-1.505 0.319-1.961-0.308-0.457-0.627-0.319-1.505 0.308-1.961 0.627-0.457 1.505-0.319 1.961 0.308C29.953 27.569 29.815 28.447 29.189 28.904zM27.93 12.369c-0.61-0.479-0.717-1.361-0.238-1.971 0.479-0.61 1.361-0.717 1.971-0.238 0.61 0.479 0.717 1.361 0.238 1.971C29.423 12.741 28.54 12.847 27.93 12.369zM32.724 31.77c-0.443 0.636-1.318 0.792-1.955 0.349-0.636-0.443-0.792-1.318-0.349-1.955 0.443-0.636 1.318-0.792 1.955-0.349C33.011 30.259 33.167 31.134 32.724 31.77zM32.932 9.419c-0.652 0.42-1.52 0.233-1.941-0.418-0.42-0.651-0.233-1.52 0.418-1.941 0.651-0.42 1.52-0.233 1.941 0.418C33.771 8.129 33.584 8.998 32.932 9.419zM37.002 33.325c-0.211 0.746-0.987 1.179-1.733 0.968-0.746-0.211-1.179-0.987-0.968-1.734 0.211-0.746 0.987-1.179 1.733-0.968C36.78 31.803 37.213 32.579 37.002 33.325zM40.23 34.879c-0.774 0.044-1.437-0.548-1.481-1.322-0.044-0.774 0.548-1.437 1.322-1.481 0.774-0.044 1.437 0.548 1.481 1.322C41.596 34.172 41.004 34.835 40.23 34.879zM41.197 28.952l-0.108 0.022-0.44 0.012v1.339h-2.098v-1.231l-0.306-0.075c-3.643-0.891-5.205-2.658-4.916-5.556l0.01-0.087h3.504l0.012 0.088c0.016 0.091 0.03 0.183 0.044 0.276 0.017 0.111 0.034 0.222 0.053 0.332 0.138 1.21 0.943 1.992 2.165 2.092 0.127 0.007 0.271 0.009 0.421 0.007l0.288-0.007c1.275-0.031 1.759-0.728 1.94-1.306 0.321-1.023 0.02-2.046-0.752-2.548-0.4-0.253-0.835-0.463-1.362-0.699-0.23-0.105-0.468-0.217-0.7-0.326-0.249-0.122-0.508-0.244-0.761-0.363l-0.217-0.102c-0.744-0.324-1.528-0.682-2.217-1.18-1.334-0.956-2.049-2.528-1.913-4.206 0.142-1.722 1.118-3.196 2.606-3.943 0.46-0.224 0.952-0.372 1.473-0.53l0.832-0.25V9.338h2.091v1.474l0.313 0.071c1.749 0.395 2.91 1.169 3.654 2.432 0.492 0.842 0.751 2.035 0.643 2.974l-0.007 0.074h-3.526l-0.082-0.419c-0.042-0.298-0.094-0.615-0.192-0.915-0.207-0.622-0.726-1.364-2.026-1.363-1.363 0.026-1.745 0.66-1.925 1.208-0.351 1.06-0.089 2.083 0.642 2.54 0.451 0.304 0.926 0.525 1.43 0.759l0.174 0.081c0.213 0.107 0.42 0.201 0.613 0.287 0.29 0.151 0.577 0.281 0.855 0.407l0.148 0.067c0.616 0.286 1.254 0.581 1.846 0.944 1.667 1.012 2.389 2.731 2.087 4.972-0.251 1.891-1.418 3.177-3.469 3.822C41.769 28.835 41.491 28.892 41.197 28.952zM45.111 33.813c-0.717 0.294-1.537-0.049-1.832-0.767-0.294-0.717 0.049-1.537 0.767-1.832s1.537 0.049 1.832 0.767S45.829 33.519 45.111 33.813zM46.52 7.958c-0.319 0.707-1.151 1.02-1.858 0.701-0.707-0.319-1.02-1.151-0.701-1.858 0.319-0.707 1.151-1.02 1.858-0.701C46.526 6.419 46.839 7.251 46.52 7.958zM49.377 31.212c-0.582 0.512-1.469 0.456-1.981-0.127-0.512-0.582-0.456-1.469 0.127-1.981 0.582-0.512 1.469-0.456 1.981 0.127C50.016 29.813 49.959 30.7 49.377 31.212zM52.56 27.361c-0.383 0.674-1.24 0.91-1.914 0.527-0.674-0.383-0.91-1.24-0.527-1.914 0.383-0.674 1.24-0.91 1.914-0.527C52.707 25.83 52.943 26.687 52.56 27.361zM54.311 22.681c-0.142 0.762-0.875 1.265-1.637 1.123-0.762-0.142-1.265-0.875-1.123-1.637 0.142-0.762 0.875-1.265 1.637-1.123C53.95 21.186 54.453 21.919 54.311 22.681z" data-fill-palette-color="accent"></path><path fill="#7a26c1" d="M61.133 44.48c-0.714-0.093-1.519 0.063-2.208 0.313-4.147 1.506-8.093 3.261-12.224 4.812-0.204 0.077-0.44 0.163-0.573 0.319-1.075 1.267-2.492 1.779-4.08 1.798-2.569 0.031-5.138 0.116-7.707 0.178-1.742 0.042-3.485 0.086-5.228 0.118-0.44 0.008-0.995-0.483-1.024-0.997-0.029-0.515 0.323-0.691 0.77-0.735 0.178-0.018 0.356-0.03 0.535-0.035 2.167-0.055 4.333-0.109 6.5-0.163 2.278-0.057 4.559-0.073 6.835-0.184 1.591-0.078 2.673-1.262 2.699-2.786 0.028-1.637-1.241-2.874-2.967-2.842-2.556 0.048-5.79-0.301-8.412-0.707-3.119-0.483-4.636-2.08-7.662-3.053-4.663-1.499-9.436-0.955-14.25-0.856-0.009-0.335-0.016-0.67-0.025-1.005-0.027-1.059-0.542-1.52-1.614-1.495-2.813 0.064-5.625 0.133-8.438 0.203-0.173 0.004-0.346 0.026-0.658 0.051 0.157 1.499 0.264 2.96 0.47 4.407 0.768 5.395 2.648 10.384 5.597 14.964 0.135 0.21 0.473 0.399 0.722 0.405 0.959 0.026 1.919-0.019 2.879-0.052 0.951-0.033 1.474-0.573 1.452-1.541-0.006-0.275-0.013-0.549-0.019-0.824 0.004 0.001 0.008 0.003 0.013 0.004 2.164 0.616 4.318 1.267 6.48 1.892 4.024 1.162 8.025 2.416 12.085 3.437 3.367 0.846 6.762 0.946 9.963-0.816 6.781-3.734 13.569-7.457 20.344-11.201 0.338-0.187 0.644-0.494 0.869-0.812C63.021 46.191 62.445 44.65 61.133 44.48z" data-fill-palette-color="accent"></path></g></svg></g></svg></g></svg></g><defs></defs></svg><rect width="395.52" height="114.52942343545554" fill="none" stroke="none" visibility="hidden"></rect></g></svg></g></svg>