<svg
	xmlns="http://www.w3.org/2000/svg" version="1.1"
	xmlns:xlink="http://www.w3.org/1999/xlink"
	xmlns:svgjs="http://svgjs.dev/svgjs" width="8em" height="2em" viewBox="0 0 1500 300" fill="none" >
	<g transform="matrix(1,0,0,1,-0.9090909090909918,0.037764008061060395)">
		<svg viewBox="0 0 396 105" data-background-color="#ffffff" preserveAspectRatio="xMidYMid meet" height="397" width="1500"
			xmlns="http://www.w3.org/2000/svg"
			xmlns:xlink="http://www.w3.org/1999/xlink">
			<g id="tight-bounds" transform="matrix(1,0,0,1,0.2400000000000091,-0.009987961829750702)">
				<svg viewBox="0 0 395.52 105.01997592365952" height="105.01997592365952" width="395.52">
					<g>
						<svg viewBox="0 0 628.886570383974 166.9843559881618" height="105.01997592365952" width="395.52">
							<g transform="matrix(1,0,0,1,0,23.07815629069386)">
								<svg viewBox="0 0 395.52 120.82804340677409" height="120.82804340677409" width="395.52">
									<g id="textblocktransform">
										<svg viewBox="0 0 395.52 120.82804340677409" height="120.82804340677409" width="395.52" id="textblock">
											<g>
												<svg viewBox="0 0 395.52 120.82804340677409" height="120.82804340677409" width="395.52">
													<g transform="matrix(1,0,0,1,0,0)">
														<svg width="395.52" viewBox="3.5 -35.05 152.04 46.449999999999996" height="120.82804340677409" data-palette-color="#7a26c1">
															<g class="wordmark-text-0" data-fill-palette-color="primary" id="text-0">
																<path d="M14.3-4.4L22.85-4.4 22.85 0 15.55 0Q13.5 0 12.33-0.08 11.15-0.15 9.4-0.68 7.65-1.2 6.45-2.25L6.45-2.25Q4.6-3.95 4.05-6.33 3.5-8.7 3.5-11.9L3.5-11.9 3.5-35 8.2-35 8.2-12Q8.2-9.1 8.85-7.45L8.85-7.45Q10.15-4.4 14.3-4.4L14.3-4.4ZM29.85-20.85L29.85-20.85Q33.35-24.5 38.6-24.5L38.6-24.5Q41.15-24.5 43.37-23.53 45.6-22.55 47.27-20.85 48.95-19.15 49.9-16.88 50.85-14.6 50.85-12L50.85-12Q50.85-9.4 49.92-7.13 49-4.85 47.35-3.15 45.7-1.45 43.45-0.48 41.2 0.5 38.6 0.5L38.6 0.5Q35.95 0.5 33.72-0.48 31.5-1.45 29.85-3.15 28.2-4.85 27.27-7.13 26.35-9.4 26.35-12L26.35-12Q26.35-17.3 29.85-20.85ZM38.6-20.3L38.6-20.3Q35.1-20.3 32.97-18 30.85-15.7 30.85-12 30.85-8.3 32.97-6 35.1-3.7 38.6-3.7L38.6-3.7Q42.15-3.7 44.25-6.03 46.35-8.35 46.35-12 46.35-15.65 44.25-17.98 42.15-20.3 38.6-20.3ZM69.44-14.1L69.44-14.1 69.44-9.6Q67.55-11.05 64.8-11.05L64.8-11.05Q62.45-11.05 61.14-10.13 59.84-9.2 59.84-7.5L59.84-7.5Q59.84-4.2 64.75-4.2L64.75-4.2 71.34-4.2 71.34-13.75Q71.34-19.8 65.44-19.8L65.44-19.8 57.45-19.8 57.45-24 65.69-24Q70.55-24 73.14-21.6 75.75-19.2 75.75-14.7L75.75-14.7 75.75 0 64.59 0Q60.34 0 57.84-1.9 55.34-3.8 55.34-7.45 55.34-11.1 57.99-13 60.64-14.9 64.64-14.9L64.64-14.9Q66.89-14.9 69.44-14.1ZM81.49 0L81.49-24 90.14-24Q95.69-24 98.09-22.35L98.09-22.35Q100.24-20.9 100.82-18.88 101.39-16.85 101.39-13.55L101.39-13.55 101.39 0 96.99 0 96.99-13.5Q96.99-14.4 96.94-15.03 96.89-15.65 96.59-16.63 96.29-17.6 95.74-18.23 95.19-18.85 94.14-19.33 93.09-19.8 91.59-19.8L91.59-19.8 85.89-19.8 85.89 0 81.49 0ZM113.89-24L113.89 0 109.49 0 109.49-19.8 105.39-19.8 107.39-24 113.89-24ZM109.29-29L109.29-29Q108.64-29.85 108.64-30.85 108.64-31.85 109.29-32.68 109.94-33.5 111.29-33.5 112.64-33.5 113.29-32.68 113.94-31.85 113.94-30.85 113.94-29.85 113.29-29.03 112.64-28.2 111.29-28.2 109.94-28.2 109.29-29ZM132.39-24L132.39-19.8 126.64-19.8 126.64 0 122.14 0 122.14-19.8 118.74-19.8 120.74-24 122.14-24Q122.14-29.1 125.59-32.08 129.04-35.05 134.39-35.05L134.39-35.05 134.39-30.85Q126.64-30.85 126.64-24L126.64-24 132.39-24ZM135.64-11.65L135.64-24 140.04-24 140.04-11.45Q140.04-7.4 141.29-5.8 142.54-4.2 145.89-4.2L145.89-4.2 151.14-4.2 151.14-24 155.54-24 155.54-1.2Q155.54 5.05 152.26 8.22 148.99 11.4 141.99 11.4L141.99 11.4 138.39 11.4 138.39 7.2 141.54 7.2Q150.69 7.2 151.14 0L151.14 0 146.94 0Q140.39 0 138.01-2.3 135.64-4.6 135.64-11.65L135.64-11.65Z" fill="#7a26c1" data-fill-palette-color="primary"></path>
															</g>
														</svg>
													</g>
												</svg>
											</g>
										</svg>
									</g>
								</svg>
							</g>
							<g transform="matrix(1,0,0,1,424.0446011752976,0)">
								<svg viewBox="0 0 204.8419692086765 166.9843559881618" height="166.9843559881618" width="204.8419692086765">
									<g>
										<svg
											xmlns="http://www.w3.org/2000/svg"
											xmlns:xlink="http://www.w3.org/1999/xlink" version="1.1" x="0" y="0" viewBox="10.6 22.5 69.8 56.900000000000006" enable-background="new 0 0 100 100" xml:space="preserve" height="166.9843559881618" width="204.8419692086765" class="icon-icon-0" data-fill-palette-color="accent" id="icon-0">
											<path d="M75.2 68.9H58.8c-0.2 0.4-0.4 0.8-0.7 1.2-1.4 2-3.7 3.2-6.2 3.2-1.5 0-3-0.5-4.2-1.3l-9.4-6.7 0 0-3.4-2.5-0.3-0.2c-0.4-0.3-0.5-0.9-0.3-1.3 0.3-0.4 0.9-0.5 1.3-0.3l4.7 3.1 8.6 5.9c0.4 0.3 0.9 0.5 1.3 0.7 0.5 0.2 1.1 0.3 1.7 0.3 1.7 0 3.3-0.8 4.3-2.3 1.6-2.4 1-5.7-1.4-7.3L31.3 45.3c-0.9-0.6-1.9-0.9-3-0.9H10.6v17.6h10.7l23.6 16.5c0.9 0.6 1.9 0.9 3 0.9h27.2c2.9 0 5.3-2.4 5.3-5.3C80.4 71.2 78.1 68.9 75.2 68.9z" fill="#a437db" data-fill-palette-color="accent"></path>
											<path d="M49.1 50c0 7 25.4 7 25.4 0 0-6.1-4.4-11.3-10.2-12.4 3.1-1 5.3-3.9 5.3-7.3 0-4.3-3.5-7.8-7.8-7.8-4.3 0-7.8 3.5-7.8 7.8 0 3.4 2.2 6.3 5.3 7.3C53.4 38.7 49.1 43.8 49.1 50z" fill="#a437db" data-fill-palette-color="accent"></path>
										</svg>
									</g>
								</svg>
							</g>
						</svg>
					</g>
					<defs></defs>
				</svg>
				<rect width="395.52" height="105.01997592365952" fill="none" stroke="none" visibility="hidden"></rect>
			</g>
		</svg>
	</g>
</svg>